<?xml version="1.0" encoding="UTF-8"?>
<svg id="_图层_2" data-name="图层 2" xmlns="http://www.w3.org/2000/svg" viewBox="0 0 64.3 29.42">
  <defs>
    <style>
      .cls-1 {
        fill: #e60000;
      }
    </style>
  </defs>
  <g id="_图层_2-2" data-name="图层 2">
    <path class="cls-1" d="M64.3,19.6c-6.17-.08-12.02-.4-17.34-.91.53.63.98,1.21,1.35,1.72.29.4.55.78.79,1.15,2.11,3.18,2.75,5.52,1.64,6.73-3.98,4.36-22.82-4-50.74-23.36,22.89,15.72,38.97,19.51,41.58,16.9.36-.37.55-.86.61-1.41.06-.48.03-1.03-.12-1.64-.05-.2-.11-.42-.2-.66-13.44-1.74-22.36-4.81-22.36-8.32C19.51,4.58,39.29.31,64.3,0c-13.14.25-24.48,2.1-30.88,4.76-3.52,1.47-5.54,3.2-5.54,5.04,0,2.97,5.29,5.64,13.66,7.44-1.34-3.21-4.69-8.68-8.12-12.48,4.46,4.12,9.85,9.57,13.08,13.39,5.24.81,11.3,1.33,17.8,1.45Z"/>
  </g>
</svg>